<svg id="Layer_1" data-name="Layer 1" xmlns="http://www.w3.org/2000/svg" viewBox="0 0 755 755"><defs><style>.cls-1{fill:#0085a1;}.cls-2{fill:#fff;}</style></defs><title>shipstation-icon</title><rect class="cls-1" y="1.21" width="755" height="755"/><path class="cls-2" d="M613.48,194.58h-472a19,19,0,0,0-19,19V543.85a19,19,0,0,0,19,19h472a19,19,0,0,0,19-19V213.58A19,19,0,0,0,613.48,194.58Zm-19,38V252l-217,134.89L160.52,252V232.58h434Zm-434,292.27V295.68L368.1,425.22a19,19,0,0,0,18.8,0L594.48,295.68V524.85h-434Z"/></svg>